<svg xmlns="http://www.w3.org/2000/svg" viewBox="0 0 64 64" fill="none">
  <defs>
    <linearGradient id="tile" x1="8" y1="5" x2="57" y2="61" gradientUnits="userSpaceOnUse">
      <stop stop-color="#4263FF"/>
      <stop offset="1" stop-color="#5949D8"/>
    </linearGradient>
    <linearGradient id="page" x1="18" y1="15" x2="47" y2="51" gradientUnits="userSpaceOnUse">
      <stop stop-color="#FFFFFF"/>
      <stop offset="1" stop-color="#E8EDFF"/>
    </linearGradient>
  </defs>
  <rect x="2" y="2" width="60" height="60" rx="18" fill="url(#tile)"/>
  <rect x="2.75" y="2.75" width="58.5" height="58.5" rx="17.25" stroke="#FFFFFF" stroke-opacity=".2" stroke-width="1.5"/>
  <path d="M18 19.5A4.5 4.5 0 0 1 22.5 15h19a4.5 4.5 0 0 1 4.5 4.5v2H18v-2Z" fill="#B9C6FF"/>
  <path d="M18 21.5h28v22a5 5 0 0 1-5 5H23a5 5 0 0 1-5-5v-22Z" fill="url(#page)"/>
  <path d="M25 12.5v7M39 12.5v7" stroke="#FFFFFF" stroke-linecap="round" stroke-width="4"/>
  <path d="M24 30h5v5h-5zM33 30h5v5h-5zM24 38h5v5h-5z" fill="#6679F5"/>
  <rect x="33" y="38" width="5" height="5" rx="1.5" fill="#22C59A"/>
  <path d="M41 37.5v7" stroke="#C8D0F5" stroke-linecap="round" stroke-width="2"/>
</svg>
